<svg width="15" height="12" viewBox="0 0 15 12" fill="none" xmlns="http://www.w3.org/2000/svg">
    <path d="M9.20538 7.03845C8.77901 7.75736 7.95086 8.1357 7.12829 7.98734C6.30573 7.83899 5.66192 7.19518 5.51357 6.37262C5.36522 5.55005 5.74355 4.7219 6.46246 4.29553" stroke="#79747F" stroke-width="1.5" stroke-linecap="round" stroke-linejoin="round"/>
    <path d="M11.4978 9.33093C10.348 10.2031 8.94332 10.6732 7.50011 10.6688C5.10871 10.7113 2.89914 9.39706 1.79507 7.27536C1.39847 6.47148 1.39847 5.52884 1.79507 4.72496C2.34723 3.62537 3.22743 2.72453 4.31393 2.14703" stroke="#79747F" stroke-width="1.5" stroke-linecap="round" stroke-linejoin="round"/>
    <path d="M13.1178 7.42324C13.1445 7.37255 13.1793 7.32709 13.2046 7.27543C13.6012 6.47156 13.6012 5.52892 13.2046 4.72504C12.1006 2.60332 9.89098 1.28904 7.49957 1.33163C7.34965 1.33163 7.20392 1.35164 7.05591 1.36139" stroke="#79747F" stroke-width="1.5" stroke-linecap="round" stroke-linejoin="round"/>
</svg>
